# xmcd
#
# Track frame offsets:
#	150
#	13385
#	26353
#	40723
#	57561
#	68919
#	82204
#	96139
#	108702
#	124450
#	137550
#	153300
#	167058
#	181021
#	198094
#	215164
#	228427
#	244082
#	257902
#	270762
#	283262
#	296137
#	310915
#
# Disc length: 4364 seconds
#
# Revision: 1
# Processed by: cddbd v1.5.2PL0 Copyright (c) Steve Scherf et al.
# Submitted via: audiograbber 1.83.01
#
DISCID=59110a17
DTITLE=Various Artist - Halland's Country Hits Volume 1
DYEAR=1900
DGENRE=
TTITLE0=Ray Kennedy - What A Way To Go
TTITLE1=Kentucky Headhunters - Dumas Walker
TTITLE2=Kentucky Headhunters - Oh Lonesome Me
TTITLE3=Kentucky Headhunters - Walk Softly On This Heart
TTITLE4=Sammy Kershaw - Anywhere But Here
TTITLE5=Sammy Kershaw - Cadillac Style
TTITLE6=Sammy Kershaw - Don't Go Near The Water
TTITLE7=Sammy Kershaw - Haunted Heart
TTITLE8=Sammy Kershaw - Queen Of My Double Wide Trailer
TTITLE9=Sammy Kershaw - She Don't Know She's Beautiful
TTITLE10=Sammy Kershaw - Yard Sale
TTITLE11=Hal Ketchum - Five O'clock World
TTITLE12=Hal Ketchum - Hearts Are Gonna Roll
TTITLE13=Hal Ketchum - Mama Know The Highway
TTITLE14=Hal Ketchum - Past The Point Of Rescue
TTITLE15=Hal Ketchum - Small Town Saturday Night
TTITLE16=Hal Ketchum - Sure Love
TTITLE17=Tracy Lawrence - Alibis
TTITLE18=Tracy Lawrence - Can't Break It To My Heart
TTITLE19=Tracy Lawrence - My Second Home
TTITLE20=Tracy Lawrence - Runnin' Behind
TTITLE21=Tracy Lawrence - Somebody Paints The Wall
TTITLE22=Tracy Lawrence - Sticks And Stones
EXTD=
EXTT0=
EXTT1=
EXTT2=
EXTT3=
EXTT4=
EXTT5=
EXTT6=
EXTT7=
EXTT8=
EXTT9=
EXTT10=
EXTT11=
EXTT12=
EXTT13=
EXTT14=
EXTT15=
EXTT16=
EXTT17=
EXTT18=
EXTT19=
EXTT20=
EXTT21=
EXTT22=
PLAYORDER=
